<svg width="20" height="20" viewBox="0 0 20 20" fill="none" xmlns="http://www.w3.org/2000/svg">
<g clip-path="url(#clip0_4_2389)">
<g clip-path="url(#clip1_4_2389)">
<path opacity="0.12" d="M10.2956 3.06572C10.1862 3.01105 10.1316 2.98372 10.0742 2.97297C10.0235 2.96344 9.97134 2.96344 9.92056 2.97297C9.86323 2.98372 9.80856 3.01105 9.69923 3.06572L1.66406 7.08322L9.69923 11.1009C9.80856 11.1556 9.86323 11.1829 9.92056 11.1936C9.97134 11.2031 10.0234 11.2031 10.0742 11.1936C10.1316 11.1829 10.1862 11.1556 10.2956 11.1009L18.3307 7.0833L10.2956 3.06572Z" fill="#9DA4AE"/>
<path d="M4.16406 8.3333V13.3426C4.16406 13.6417 4.16406 13.7912 4.20956 13.9233C4.24985 14.0401 4.3156 14.1464 4.40206 14.2346C4.49981 14.3345 4.63356 14.4014 4.90115 14.5351L9.40115 16.7851C9.61973 16.8945 9.72906 16.9491 9.84373 16.9706C9.94531 16.9896 10.0495 16.9896 10.1511 16.9706C10.2657 16.9491 10.3751 16.8945 10.5936 16.7851L15.0936 14.5351C15.3612 14.4014 15.495 14.3345 15.5927 14.2346C15.6792 14.1464 15.7449 14.0401 15.7851 13.9233C15.8307 13.7912 15.8307 13.6417 15.8307 13.3426V8.3333M1.66406 7.0833L9.69923 3.06572C9.80856 3.01105 9.86323 2.98372 9.92056 2.97297C9.97134 2.96344 10.0235 2.96344 10.0742 2.97297C10.1316 2.98372 10.1862 3.01105 10.2956 3.06572L18.3307 7.08322L10.2956 11.1009C10.1862 11.1556 10.1316 11.1829 10.0742 11.1936C10.0234 11.2031 9.97134 11.2031 9.92056 11.1936C9.86323 11.1829 9.80856 11.1556 9.69923 11.1009L1.66406 7.0833Z" stroke="#9DA4AE" stroke-width="1.66667" stroke-linecap="round" stroke-linejoin="round"/>
</g>
</g>
<defs>
<clipPath id="clip0_4_2389">
<rect width="20" height="20" fill="white"/>
</clipPath>
<clipPath id="clip1_4_2389">
<rect width="20" height="20" fill="white"/>
</clipPath>
</defs>
</svg>
