<svg width="115" height="17" viewBox="0 0 115 17" fill="none" xmlns="http://www.w3.org/2000/svg">
<path d="M7.01304 13.2915H0.000341827V10.3723H1.27241V3.18833H0.032959V0.301708H6.98042C8.04592 0.301708 8.9891 0.418587 9.80996 0.652343C10.6363 0.880663 11.2832 1.26663 11.7507 1.81025C12.2236 2.35387 12.4601 3.10135 12.4601 4.05269C12.4601 5.71616 12.0089 6.91213 11.1065 7.64058C10.2041 8.36903 8.85047 8.73325 7.04565 8.73325C6.58358 8.73325 6.17858 8.70607 5.83066 8.65171V10.3723H7.01304V13.2915ZM5.84697 3.18833V6.07495H6.1813C7.41532 6.07495 8.03232 5.53133 8.03232 4.44409C8.03232 4.04181 7.89642 3.73195 7.62461 3.5145C7.3528 3.29705 6.98857 3.18833 6.53193 3.18833H5.84697ZM19.5625 13.2915H13.5691V10.4212H14.8738V3.18833H13.5691V0.318017H19.5788C21.9381 0.318017 23.7429 0.864355 24.9933 1.95703C26.249 3.04427 26.8769 4.6561 26.8769 6.79253C26.8769 8.87459 26.2545 10.4783 25.0096 11.6036C23.7647 12.7289 21.949 13.2915 19.5625 13.2915ZM19.0488 3.18833V10.4212H19.5625C20.1714 10.4212 20.6688 10.2663 21.0547 9.9564C21.4407 9.6411 21.7261 9.20892 21.9109 8.65986C22.0958 8.11081 22.1882 7.48836 22.1882 6.79253C22.1882 5.72703 21.9816 4.85996 21.5685 4.19131C21.1553 3.52266 20.4867 3.18833 19.5625 3.18833H19.0488ZM39.2388 7.51011V13.2915H28.8176V10.3723H30.1223V3.18833H28.8176V0.318017H35.5938V3.18833H34.2973V10.3723H36.3848L37.1676 7.51011H39.2388ZM44.9468 13.4383C43.9357 13.4383 43.0578 13.2507 42.313 12.8756C41.5628 12.506 40.9866 11.9759 40.5843 11.2855C40.1874 10.5951 39.989 9.78787 39.989 8.86372C39.989 7.95044 40.1847 7.15675 40.5761 6.48267C40.9621 5.81401 41.5084 5.29757 42.2151 4.93335C42.9218 4.56912 43.7509 4.38701 44.7022 4.38701C45.5774 4.38701 46.3494 4.55825 47.018 4.90073C47.6867 5.24865 48.2031 5.74062 48.5673 6.37666C48.937 7.0127 49.1218 7.75474 49.1218 8.60278C49.1218 8.89634 49.0783 9.17358 48.9914 9.43452H43.9112C43.9112 9.94552 44.1042 10.356 44.4902 10.6658C44.8762 10.9702 45.341 11.1225 45.8846 11.1225C46.2977 11.1225 46.7516 11.0518 47.2463 10.9104C47.741 10.7637 48.2384 10.5381 48.7386 10.2336L48.8772 10.2826V12.4761C48.3173 12.7968 47.741 13.0387 47.1485 13.2018C46.5614 13.3595 45.8275 13.4383 44.9468 13.4383ZM43.9112 7.76289V7.99936H45.9987V7.82812C45.9987 7.44215 45.909 7.11055 45.7296 6.8333C45.5557 6.55062 45.2947 6.40928 44.9468 6.40928C44.6587 6.40928 44.4141 6.55334 44.2129 6.84145C44.0118 7.12414 43.9112 7.43128 43.9112 7.76289ZM53.517 13.4383C52.9625 13.4383 52.4597 13.3296 52.0084 13.1121C51.5518 12.9001 51.1876 12.593 50.9158 12.1907C50.644 11.7884 50.5081 11.3209 50.5081 10.7881C50.5081 10.2119 50.6684 9.72264 50.9892 9.32036C51.3099 8.92895 51.7285 8.6354 52.2449 8.4397C52.7668 8.24399 53.3294 8.14614 53.9329 8.14614C54.645 8.14614 55.33 8.25215 55.9877 8.46416V8.09722C55.9877 7.66232 55.8029 7.33071 55.4333 7.10239C55.069 6.87407 54.5743 6.75991 53.9492 6.75991C53.6828 6.75991 53.3838 6.79253 53.0522 6.85776C52.7206 6.923 52.3971 7.0127 52.0818 7.12686C51.7665 7.24102 51.492 7.36877 51.2583 7.51011L51.0218 7.41226V5.03936C51.6796 4.8056 52.3509 4.63979 53.0359 4.54194C53.7209 4.43866 54.3596 4.38701 54.9521 4.38701C58.2574 4.38701 59.91 5.3166 59.91 7.17578V10.8371H60.6765V13.2915H56.5015L56.1345 11.9542C55.9008 12.4108 55.5365 12.7723 55.0418 13.0387C54.5472 13.3051 54.0389 13.4383 53.517 13.4383ZM55.05 11.3508C55.2294 11.3508 55.4115 11.3209 55.5963 11.2611C55.7866 11.2013 55.9171 11.1388 55.9877 11.0735V9.70361C55.9062 9.69274 55.7757 9.66012 55.5963 9.60576C55.4115 9.55684 55.2511 9.53237 55.1152 9.53237C54.8271 9.53237 54.5961 9.62207 54.4221 9.80146C54.2536 9.98086 54.1693 10.2201 54.1693 10.519C54.1693 10.7419 54.2482 10.9376 54.4058 11.1062C54.5689 11.2692 54.7836 11.3508 55.05 11.3508ZM68.0398 13.2915H61.7773V10.8371H62.8292V7.07793H61.7773V4.87627L66.7351 4.38701V5.80586C66.9091 5.53405 67.1646 5.29214 67.5016 5.08013C67.8387 4.86268 68.1974 4.69416 68.578 4.57456C68.964 4.44953 69.3091 4.38701 69.6136 4.38701V7.84443C68.9775 7.63242 68.4529 7.52642 68.0398 7.52642C67.5179 7.52642 67.17 7.67863 66.996 7.98306C66.8221 8.28205 66.7351 8.67617 66.7351 9.16543V10.8371H68.0398V13.2915ZM81.527 7.74658V10.9349H82.6605V13.2915H77.6129V7.73027C77.6129 7.49652 77.5368 7.28994 77.3846 7.11055C77.2378 6.93115 77.0584 6.84145 76.8464 6.84145C76.4496 6.84145 76.1995 7.03988 76.0962 7.43672C75.9875 7.84443 75.9332 8.41523 75.9332 9.14912V10.9349H75.9495V13.2915H70.853V10.9349H72.0354V7.07793H70.853V4.87627L75.9332 4.38701V5.61016C76.3083 5.16439 76.735 4.84909 77.2134 4.66426C77.6918 4.47943 78.2327 4.38701 78.8361 4.38701C80.63 4.38701 81.527 5.50687 81.527 7.74658ZM86.599 3.70205C85.9195 3.70205 85.3595 3.54168 84.9192 3.22095C84.4789 2.90021 84.2587 2.43813 84.2587 1.83472C84.2587 1.2313 84.4789 0.774658 84.9192 0.464794C85.3595 0.154931 85.9249 -6.07222e-07 86.6153 -6.07222e-07C87.3057 -6.07222e-07 87.8656 0.152213 88.2951 0.45664C88.73 0.761067 88.9474 1.22043 88.9474 1.83472C88.9474 2.43813 88.7245 2.90021 88.2788 3.22095C87.8384 3.54168 87.2785 3.70205 86.599 3.70205ZM89.5998 10.8371V13.2915H83.59V10.8371H84.6419V7.07793H83.59V5.07197L88.5479 4.55825V10.8371H89.5998ZM101.652 7.74658V10.9349H102.785V13.2915H97.7378V7.73027C97.7378 7.49652 97.6616 7.28994 97.5094 7.11055C97.3627 6.93115 97.1833 6.84145 96.9712 6.84145C96.5744 6.84145 96.3243 7.03988 96.2211 7.43672C96.1123 7.84443 96.058 8.41523 96.058 9.14912V10.9349H96.0743V13.2915H90.9778V10.9349H92.1602V7.07793H90.9778V4.87627L96.058 4.38701V5.61016C96.4331 5.16439 96.8598 4.84909 97.3382 4.66426C97.8166 4.47943 98.3575 4.38701 98.9609 4.38701C100.755 4.38701 101.652 5.50687 101.652 7.74658ZM108.355 16.4635C107.191 16.4635 105.965 16.2977 104.677 15.9661V13.6095C105.4 13.8324 105.998 14.0009 106.471 14.1151C106.944 14.2347 107.409 14.2945 107.865 14.2945C109.181 14.2945 109.839 13.6421 109.839 12.3375C109.54 12.6038 109.173 12.8294 108.738 13.0143C108.303 13.1991 107.811 13.2915 107.262 13.2915C106.474 13.2915 105.808 13.0931 105.264 12.6962C104.721 12.3048 104.31 11.7748 104.033 11.1062C103.761 10.4375 103.625 9.69546 103.625 8.88003C103.625 8.04285 103.764 7.28722 104.041 6.61313C104.318 5.93361 104.729 5.39271 105.272 4.99043C105.821 4.58815 106.485 4.38701 107.262 4.38701C108.333 4.38701 109.192 4.84909 109.839 5.77324L110.426 4.55825H114.576V7.07793H113.794V12.1907C113.794 13.1311 113.568 13.9194 113.117 14.5554C112.671 15.1915 112.04 15.6671 111.225 15.9824C110.41 16.3032 109.453 16.4635 108.355 16.4635ZM108.803 11.0572C109.059 11.0572 109.292 10.9784 109.504 10.8208C109.716 10.6631 109.844 10.5082 109.888 10.356V7.37964C109.681 6.97736 109.298 6.77622 108.738 6.77622C108.292 6.77622 107.933 6.96921 107.662 7.35518C107.395 7.74115 107.262 8.26574 107.262 8.92895C107.262 9.56499 107.395 10.0787 107.662 10.4701C107.933 10.8615 108.314 11.0572 108.803 11.0572Z" fill="#1C2536"/>
</svg>
